<svg id="Layer_1" data-name="Layer 1" xmlns="http://www.w3.org/2000/svg" xmlns:xlink="http://www.w3.org/1999/xlink" viewBox="0 0 383.3 767.61"><defs><style>.cls-1{fill:none;}.cls-2{clip-path:url(#clip-path);}.cls-3{fill:#076fc4;}.cls-4{fill:red;}.cls-5{fill:#fff;}</style><clipPath id="clip-path"><rect class="cls-1" width="383.3" height="767.61"/></clipPath></defs><g class="cls-2"><rect class="cls-3" x="17.29" y="-4.3" width="16.75" height="89.34" transform="translate(-21.03 29.97) rotate(-45)"/><rect class="cls-3" x="4.74" y="8.74" width="15.75" height="89.34" transform="translate(-34.07 24.57) rotate(-45)"/><rect class="cls-3" x="-7.8" y="21.79" width="14.76" height="89.34" transform="translate(-47.12 19.17) rotate(-45)"/><rect class="cls-3" x="-20.35" y="34.83" width="13.76" height="89.34" transform="translate(-60.16 13.76) rotate(-45)"/><rect class="cls-3" x="-32.89" y="47.87" width="12.76" height="89.34" transform="translate(-73.2 8.36) rotate(-45)"/><rect class="cls-3" x="143.64" y="122.05" width="16.75" height="89.34" transform="translate(-73.36 156.32) rotate(-45)"/><rect class="cls-3" x="131.09" y="135.09" width="15.75" height="89.34" transform="translate(-86.41 150.92) rotate(-45)"/><rect class="cls-3" x="118.55" y="148.14" width="14.76" height="89.34" transform="translate(-99.45 145.52) rotate(-45)"/><rect class="cls-3" x="106" y="161.18" width="13.76" height="89.34" transform="translate(-112.5 140.11) rotate(-45)"/><rect class="cls-3" x="93.46" y="174.22" width="12.76" height="89.34" transform="translate(-125.54 134.71) rotate(-45)"/><rect class="cls-3" x="80.91" y="187.27" width="11.77" height="89.34" transform="translate(-138.58 129.31) rotate(-45)"/><rect class="cls-3" x="68.37" y="200.31" width="10.77" height="89.34" transform="translate(-151.63 123.9) rotate(-45)"/><rect class="cls-3" x="55.82" y="213.36" width="9.77" height="89.34" transform="translate(-164.67 118.5) rotate(-45)"/><rect class="cls-3" x="43.28" y="226.4" width="8.77" height="89.34" transform="translate(-177.72 113.1) rotate(-45)"/><rect class="cls-3" x="30.73" y="239.44" width="7.78" height="89.34" transform="translate(-190.76 107.69) rotate(-45)"/><rect class="cls-3" x="18.19" y="252.49" width="6.78" height="89.34" transform="translate(-203.8 102.29) rotate(-45)"/><rect class="cls-3" x="5.64" y="265.53" width="5.78" height="89.34" transform="translate(-216.85 96.89) rotate(-45)"/><rect class="cls-3" x="-6.91" y="278.58" width="4.79" height="89.34" transform="translate(-229.89 91.49) rotate(-45)"/><rect class="cls-3" x="-19.45" y="291.62" width="3.79" height="89.34" transform="translate(-242.94 86.08) rotate(-45)"/><rect class="cls-3" x="-32" y="304.66" width="2.79" height="89.34" transform="translate(-255.98 80.68) rotate(-45)"/><rect class="cls-3" x="-29.5" y="171.33" width="11.77" height="89.34" transform="translate(-159.66 46.56) rotate(-45)"/><rect class="cls-3" x="-15.96" y="158.29" width="10.77" height="89.34" transform="translate(-146.61 51.97) rotate(-45)"/><rect class="cls-3" x="-2.42" y="145.25" width="9.77" height="89.34" transform="translate(-133.57 57.37) rotate(-45)"/><rect class="cls-3" x="11.12" y="132.2" width="8.77" height="89.34" transform="translate(-120.52 62.77) rotate(-45)"/><rect class="cls-3" x="24.67" y="119.16" width="7.78" height="89.34" transform="translate(-107.48 68.18) rotate(-45)"/><rect class="cls-3" x="38.21" y="106.11" width="6.78" height="89.34" transform="translate(-94.44 73.58) rotate(-45)"/><rect class="cls-3" x="51.75" y="93.07" width="5.78" height="89.34" transform="translate(-81.39 78.98) rotate(-45)"/><rect class="cls-3" x="65.29" y="80.03" width="4.79" height="89.34" transform="translate(-68.35 84.39) rotate(-45)"/><rect class="cls-3" x="78.84" y="66.98" width="3.79" height="89.34" transform="translate(-55.31 89.79) rotate(-45)"/><rect class="cls-3" x="92.38" y="53.94" width="2.79" height="89.34" transform="translate(-42.26 95.19) rotate(-45)"/><path class="cls-4" d="M-173.83,571.54,0,397.71,173.83,571.54,0,745.37-173.83,571.54M0,761.18,189.63,571.54,0,381.91-189.63,571.54Z"/><path class="cls-4" d="M-155.28,571.54-2,418.31,151.18,571.54-2,724.77-155.28,571.54M-2,738.6,165,571.54-2,404.48-169.11,571.54Z"/><path class="cls-4" d="M-134.68,571.54-2,438.91,130.58,571.54-2,704.17-134.68,571.54M-2,716,142.43,571.54-2,427.06-146.53,571.54Z"/><path class="cls-4" d="M-114.08,571.54l112-112,112,112-112,112-112-112M-2,693.45,119.86,571.54-2,449.64-124,571.54Z"/><path class="cls-4" d="M-93.48,571.54-2,480.11l91.43,91.43L-2,663l-91.43-91.43M-2,670.87l99.33-99.33L-2,472.21l-99.33,99.33Z"/><path class="cls-4" d="M-72.88,571.54-2,500.71l70.83,70.83L-2,642.37l-70.83-70.83M-2,648.3l76.76-76.76L-2,494.79l-76.76,76.75Z"/><path class="cls-4" d="M-52.28,571.54-2,521.31l50.23,50.23L-2,621.77l-50.23-50.23M-2,625.72l54.18-54.18L-2,517.36l-54.18,54.18Z"/><path class="cls-4" d="M-31.68,571.54-2,541.91l29.63,29.63L-2,601.17l-29.63-29.63M-2,603.15l31.61-31.61L-2,539.94l-31.61,31.6Z"/><polygon class="cls-5" points="190.86 569.98 189.47 571.38 188.07 569.98 188.07 239.53 168.81 550.72 166.17 548.08 185.39 237.65 148.3 530.21 145.8 527.71 182.79 235.97 129.19 511.1 126.81 508.71 180.23 234.52 111.33 493.24 109.05 490.96 177.68 233.26 94.61 476.52 92.41 474.32 175.1 232.18 78.92 460.83 76.79 458.7 172.45 231.27 64.18 446.08 62.1 444.01 169.69 230.55 50.28 432.19 48.25 430.16 166.78 229.99 37.18 419.09 35.17 417.08 163.7 229.55 24.8 406.71 22.81 404.72 160.43 229.19 13.08 394.99 11.1 393.01 156.93 228.92 1.97 383.88 0 381.91 189.47 192.44 190.86 193.84 190.86 569.98"/><polygon class="cls-5" points="188.07 193.84 189.47 192.44 190.86 193.84 190.86 524.28 210.13 213.1 212.76 215.74 193.54 526.17 230.63 233.61 233.13 236.11 196.14 527.84 249.75 252.72 252.13 255.1 198.7 529.3 267.6 270.58 269.88 272.86 201.25 530.56 284.32 287.3 286.52 289.5 203.83 531.64 300.01 302.99 302.14 305.12 206.48 532.54 314.76 317.73 316.83 319.81 209.24 533.27 328.65 331.62 330.68 333.66 212.15 533.83 341.75 344.73 343.76 346.74 215.23 534.27 354.13 357.11 356.12 359.1 218.5 534.63 365.85 368.83 367.83 370.81 222 534.89 376.96 379.94 378.93 381.91 189.47 571.38 188.07 569.98 188.07 193.84"/></g></svg>