<svg id="Layer_1" data-name="Layer 1" xmlns="http://www.w3.org/2000/svg" xmlns:xlink="http://www.w3.org/1999/xlink" viewBox="0 0 54.57 54.57"><defs><style>.cls-1{fill:url(#linear-gradient);}</style><linearGradient id="linear-gradient" y1="27.29" x2="54.57" y2="27.29" gradientUnits="userSpaceOnUse"><stop offset="0" stop-color="red"/><stop offset="1" stop-color="#076fc4"/></linearGradient></defs><polygon class="cls-1" points="0.4 0 0 0 0 0.4 47.59 47.99 0 5.95 0 6.71 47.47 48.65 0 11.86 0 12.58 47.34 49.26 0 17.36 0 18.05 47.18 49.84 0 22.5 0 23.16 46.99 50.39 0 27.32 0 27.95 46.78 50.92 0 31.84 0 32.45 46.53 51.43 0 36.09 0 36.69 46.23 51.93 0 40.09 0 40.67 45.9 52.43 0 43.86 0 44.44 45.52 52.94 0 47.43 0 48 45.1 53.46 0 50.8 0 51.37 44.63 54 0 54 0 54.57 54.57 54.57 54.57 54.17 0.4 0"/><polygon class="cls-1" points="54.17 54.57 54.57 54.57 54.57 54.17 6.98 6.58 54.57 48.62 54.57 47.86 7.1 5.92 54.57 42.71 54.57 41.99 7.23 5.31 54.57 37.21 54.57 36.52 7.39 4.73 54.57 32.07 54.57 31.41 7.58 4.18 54.57 27.25 54.57 26.62 7.79 3.65 54.57 22.73 54.57 22.12 8.04 3.14 54.57 18.48 54.57 17.89 8.34 2.64 54.57 14.48 54.57 13.9 8.67 2.14 54.57 10.71 54.57 10.13 9.05 1.63 54.57 7.14 54.57 6.57 9.47 1.11 54.57 3.77 54.57 3.2 9.94 0.57 54.57 0.57 54.57 0 0 0 0 0.4 54.17 54.57"/></svg>