<svg id="Layer_1" data-name="Layer 1" xmlns="http://www.w3.org/2000/svg" viewBox="0 0 568.57 758.32"><defs><style>.cls-1{fill:#076fc4;}.cls-2{fill:red;}.cls-3{fill:#fff;}</style></defs><rect class="cls-1" x="206.92" y="-7.16" width="16.75" height="89.34" transform="translate(36.54 163.23) rotate(-45)"/><rect class="cls-1" x="194.38" y="5.88" width="15.75" height="89.34" transform="translate(23.49 157.82) rotate(-45)"/><rect class="cls-1" x="181.83" y="18.93" width="14.76" height="89.34" transform="translate(10.45 152.42) rotate(-45)"/><rect class="cls-1" x="169.29" y="31.97" width="13.76" height="89.34" transform="translate(-2.6 147.02) rotate(-45)"/><rect class="cls-1" x="156.74" y="45.01" width="12.76" height="89.34" transform="translate(-15.64 141.61) rotate(-45)"/><rect class="cls-1" x="144.2" y="58.06" width="11.77" height="89.34" transform="translate(-28.68 136.21) rotate(-45)"/><rect class="cls-1" x="131.65" y="71.1" width="10.77" height="89.34" transform="translate(-41.73 130.81) rotate(-45)"/><rect class="cls-1" x="119.11" y="84.15" width="9.77" height="89.34" transform="translate(-54.77 125.4) rotate(-45)"/><rect class="cls-1" x="106.56" y="97.19" width="8.77" height="89.34" transform="translate(-67.82 120) rotate(-45)"/><rect class="cls-1" x="94.01" y="110.23" width="7.78" height="89.34" transform="translate(-80.86 114.6) rotate(-45)"/><rect class="cls-1" x="81.47" y="123.28" width="6.78" height="89.34" transform="translate(-93.9 109.2) rotate(-45)"/><rect class="cls-1" x="68.92" y="136.32" width="5.78" height="89.34" transform="translate(-106.95 103.79) rotate(-45)"/><rect class="cls-1" x="56.38" y="149.37" width="4.79" height="89.34" transform="translate(-119.99 98.39) rotate(-45)"/><rect class="cls-1" x="43.83" y="162.41" width="3.79" height="89.34" transform="translate(-133.03 92.99) rotate(-45)"/><rect class="cls-1" x="31.29" y="175.45" width="2.79" height="89.34" transform="translate(-146.08 87.58) rotate(-45)"/><rect class="cls-1" x="333.27" y="119.19" width="16.75" height="89.34" transform="translate(-15.8 289.57) rotate(-45)"/><rect class="cls-1" x="320.73" y="132.23" width="15.75" height="89.34" transform="translate(-28.84 284.17) rotate(-45)"/><rect class="cls-1" x="308.18" y="145.28" width="14.76" height="89.34" transform="translate(-41.89 278.77) rotate(-45)"/><rect class="cls-1" x="295.64" y="158.32" width="13.76" height="89.34" transform="translate(-54.93 273.37) rotate(-45)"/><rect class="cls-1" x="283.09" y="171.36" width="12.76" height="89.34" transform="translate(-67.98 267.96) rotate(-45)"/><rect class="cls-1" x="270.55" y="184.41" width="11.77" height="89.34" transform="translate(-81.02 262.56) rotate(-45)"/><rect class="cls-1" x="258" y="197.45" width="10.77" height="89.34" transform="translate(-94.06 257.16) rotate(-45)"/><rect class="cls-1" x="245.45" y="210.5" width="9.77" height="89.34" transform="translate(-107.11 251.75) rotate(-45)"/><rect class="cls-1" x="232.91" y="223.54" width="8.77" height="89.34" transform="translate(-120.15 246.35) rotate(-45)"/><rect class="cls-1" x="220.36" y="236.58" width="7.78" height="89.34" transform="translate(-133.19 240.95) rotate(-45)"/><rect class="cls-1" x="207.82" y="249.63" width="6.78" height="89.34" transform="translate(-146.24 235.55) rotate(-45)"/><rect class="cls-1" x="195.27" y="262.67" width="5.78" height="89.34" transform="translate(-159.28 230.14) rotate(-45)"/><rect class="cls-1" x="182.73" y="275.72" width="4.79" height="89.34" transform="translate(-172.33 224.74) rotate(-45)"/><rect class="cls-1" x="170.18" y="288.76" width="3.79" height="89.34" transform="translate(-185.37 219.34) rotate(-45)"/><rect class="cls-1" x="157.64" y="301.8" width="2.79" height="89.34" transform="translate(-198.41 213.93) rotate(-45)"/><rect class="cls-1" x="92.42" y="233.69" width="16.75" height="89.34" transform="translate(-167.31 152.8) rotate(-45)"/><rect class="cls-1" x="105.96" y="220.65" width="15.75" height="89.34" transform="translate(-154.27 158.21) rotate(-45)"/><rect class="cls-1" x="119.5" y="207.6" width="14.76" height="89.34" transform="translate(-141.22 163.61) rotate(-45)"/><rect class="cls-1" x="133.05" y="194.56" width="13.76" height="89.34" transform="translate(-128.18 169.01) rotate(-45)"/><rect class="cls-1" x="146.59" y="181.52" width="12.76" height="89.34" transform="translate(-115.14 174.41) rotate(-45)"/><rect class="cls-1" x="160.13" y="168.47" width="11.77" height="89.34" transform="translate(-102.09 179.82) rotate(-45)"/><rect class="cls-1" x="173.67" y="155.43" width="10.77" height="89.34" transform="translate(-89.05 185.22) rotate(-45)"/><rect class="cls-1" x="187.22" y="142.39" width="9.77" height="89.34" transform="translate(-76 190.62) rotate(-45)"/><rect class="cls-1" x="200.76" y="129.34" width="8.77" height="89.34" transform="translate(-62.96 196.03) rotate(-45)"/><rect class="cls-1" x="214.3" y="116.3" width="7.78" height="89.34" transform="translate(-49.92 201.43) rotate(-45)"/><rect class="cls-1" x="227.84" y="103.25" width="6.78" height="89.34" transform="translate(-36.87 206.83) rotate(-45)"/><rect class="cls-1" x="241.39" y="90.21" width="5.78" height="89.34" transform="translate(-23.83 212.24) rotate(-45)"/><rect class="cls-1" x="254.93" y="77.17" width="4.79" height="89.34" transform="translate(-10.78 217.64) rotate(-45)"/><rect class="cls-1" x="268.47" y="64.12" width="3.79" height="89.34" transform="translate(2.26 223.04) rotate(-45)"/><rect class="cls-1" x="282.01" y="51.08" width="2.79" height="89.34" transform="translate(15.3 228.44) rotate(-45)"/><path class="cls-2" d="M15.8,568.68,189.63,394.85,363.46,568.68,189.63,742.51,15.8,568.68M189.63,758.32,379.27,568.68,189.63,379.05,0,568.68Z"/><path class="cls-2" d="M34.35,568.68,187.58,415.45,340.81,568.68,187.58,721.91,34.35,568.68M187.58,735.74,354.64,568.68,187.58,401.62l-167,167.06Z"/><path class="cls-2" d="M55,568.68,187.58,436.05,320.21,568.68,187.58,701.31,55,568.68M187.58,713.17,332.07,568.68,187.58,424.2,43.1,568.68Z"/><path class="cls-2" d="M75.55,568.68l112-112,112,112-112,112-112-112m112,121.91L309.49,568.68,187.58,446.78,65.68,568.68Z"/><path class="cls-2" d="M96.15,568.68l91.43-91.43L279,568.68l-91.43,91.43L96.15,568.68M187.58,668l99.34-99.33-99.34-99.33L88.25,568.68Z"/><path class="cls-2" d="M116.75,568.68l70.83-70.83,70.83,70.83-70.83,70.83-70.83-70.83m70.83,76.76,76.76-76.76-76.76-76.75-76.75,76.75Z"/><path class="cls-2" d="M137.35,568.68l50.23-50.23,50.23,50.23-50.23,50.23-50.23-50.23m50.23,54.18,54.18-54.18L187.58,514.5,133.4,568.68Z"/><path class="cls-2" d="M158,568.68l29.63-29.63,29.63,29.63-29.63,29.63L158,568.68m29.63,31.61,31.61-31.61-31.61-31.6L156,568.68Z"/><polygon class="cls-3" points="380.5 567.12 379.1 568.51 377.7 567.12 377.7 236.68 358.44 547.86 355.81 545.22 375.02 234.79 337.93 527.35 335.44 524.85 372.42 233.12 318.82 508.24 316.44 505.86 369.87 231.66 300.96 490.38 298.68 488.1 367.31 230.4 284.24 473.66 282.05 471.46 364.73 229.31 268.56 457.97 266.43 455.84 362.08 228.41 253.81 443.22 251.73 441.15 359.32 227.69 239.92 429.33 237.88 427.3 356.41 227.13 226.82 416.23 224.81 414.22 353.33 226.69 214.43 403.85 212.45 401.86 350.06 226.33 202.72 392.13 200.74 390.15 346.57 226.06 191.61 381.02 189.63 379.05 379.1 189.58 380.5 190.98 380.5 567.12"/><polygon class="cls-3" points="377.7 190.98 379.1 189.58 380.5 190.98 380.5 521.42 399.76 210.24 402.39 212.88 383.18 523.31 420.26 230.75 422.76 233.25 385.78 524.98 439.38 249.86 441.76 252.24 388.33 526.44 457.24 267.72 459.52 270 390.89 527.7 473.95 284.44 476.15 286.64 393.47 528.78 489.64 300.13 491.77 302.26 396.11 529.68 504.39 314.87 506.47 316.95 398.88 530.41 518.28 328.76 520.32 330.8 401.79 530.97 531.38 341.87 533.39 343.88 404.87 531.41 543.76 354.25 545.75 356.24 408.13 531.77 555.49 365.97 557.46 367.94 411.63 532.03 566.59 377.07 568.57 379.05 379.1 568.51 377.7 567.12 377.7 190.98"/></svg>