<svg id="Layer_1" data-name="Layer 1" xmlns="http://www.w3.org/2000/svg" xmlns:xlink="http://www.w3.org/1999/xlink" viewBox="0 0 54.53 54.53"><defs><style>.cls-1{fill:url(#linear-gradient);}.cls-2{fill:url(#linear-gradient-2);}.cls-3{fill:url(#linear-gradient-3);}.cls-4{fill:url(#linear-gradient-4);}.cls-5{fill:url(#linear-gradient-5);}.cls-6{fill:url(#linear-gradient-6);}.cls-7{fill:url(#linear-gradient-7);}.cls-8{fill:url(#linear-gradient-8);}.cls-9{fill:url(#linear-gradient-9);}</style><linearGradient id="linear-gradient" x1="3899.48" y1="-676.53" x2="3954.01" y2="-676.53" gradientTransform="translate(3954.01 -624.27) rotate(180)" gradientUnits="userSpaceOnUse"><stop offset="0" stop-color="red"/><stop offset="1" stop-color="#076fc4"/></linearGradient><linearGradient id="linear-gradient-2" x1="3899.48" y1="-670.28" x2="3954.01" y2="-670.28" xlink:href="#linear-gradient"/><linearGradient id="linear-gradient-3" x1="3899.48" y1="-664.03" x2="3954.01" y2="-664.03" xlink:href="#linear-gradient"/><linearGradient id="linear-gradient-4" x1="3899.48" y1="-657.78" x2="3954.01" y2="-657.78" xlink:href="#linear-gradient"/><linearGradient id="linear-gradient-5" x1="3899.48" y1="-651.54" x2="3954.01" y2="-651.54" xlink:href="#linear-gradient"/><linearGradient id="linear-gradient-6" x1="3899.48" y1="-645.29" x2="3954.01" y2="-645.29" xlink:href="#linear-gradient"/><linearGradient id="linear-gradient-7" x1="3899.48" y1="-639.04" x2="3954.01" y2="-639.04" xlink:href="#linear-gradient"/><linearGradient id="linear-gradient-8" x1="3899.48" y1="-632.79" x2="3954.01" y2="-632.79" xlink:href="#linear-gradient"/><linearGradient id="linear-gradient-9" x1="3899.48" y1="-626.54" x2="3954.01" y2="-626.54" xlink:href="#linear-gradient"/></defs><polygon class="cls-1" points="4.54 49.99 49.99 49.99 54.53 54.53 0 54.53 4.54 49.99"/><polygon class="cls-2" points="54.53 48.28 0 48.28 7.38 43.74 47.15 43.74 54.53 48.28"/><polygon class="cls-3" points="54.53 42.03 0 42.03 10.22 37.49 44.31 37.49 54.53 42.03"/><polygon class="cls-4" points="54.53 35.79 0 35.79 13.06 31.24 41.47 31.24 54.53 35.79"/><polygon class="cls-5" points="54.53 29.54 0 29.54 15.9 24.99 38.63 24.99 54.53 29.54"/><polygon class="cls-6" points="54.53 23.29 0 23.29 18.75 18.75 35.79 18.75 54.53 23.29"/><polygon class="cls-7" points="54.53 17.04 0 17.04 21.59 12.5 32.95 12.5 54.53 17.04"/><polygon class="cls-8" points="54.53 10.79 0 10.79 24.43 6.25 30.11 6.25 54.53 10.79"/><polygon class="cls-9" points="54.53 4.54 0 4.54 27.27 0 27.27 0 54.53 4.54"/></svg>