<svg id="Layer_1" data-name="Layer 1" xmlns="http://www.w3.org/2000/svg" xmlns:xlink="http://www.w3.org/1999/xlink" viewBox="0 0 54.53 54.53"><defs><style>.cls-1{fill:url(#linear-gradient);}</style><linearGradient id="linear-gradient" y1="27.27" x2="54.53" y2="27.27" gradientUnits="userSpaceOnUse"><stop offset="0" stop-color="red"/><stop offset="1" stop-color="#076fc4"/></linearGradient></defs><path class="cls-1" d="M21.4.64,22.5.42l3.68,15.81L26.7,0h1.13l.52,16.22L32,.42l1.11.22-2.65,16L37.18,1.87c.35.13.7.28,1,.43L32.5,17.48,41.94,4.29c.32.2.63.41.94.63L34.3,18.69,46.14,7.6l.8.79L35.84,20.23l13.77-8.58c.22.31.43.63.63.94L37.05,22l15.19-5.73c.15.35.29.69.43,1.05L37.88,24.05l16-2.65c.08.36.15.73.22,1.1l-15.8,3.68,16.21.52c0,.19,0,.38,0,.57s0,.37,0,.56l-16.21.52L54.11,32c-.07.37-.14.74-.22,1.11l-16-2.65,14.79,6.69c-.14.35-.28.7-.43,1L37.05,32.5l13.19,9.44c-.2.32-.41.63-.63.94L35.84,34.3l11.1,11.84-.8.8L34.3,35.84l8.58,13.77c-.31.22-.62.43-.94.63L32.5,37.05l5.72,15.19-1,.43L30.49,37.88l2.65,16L32,54.11l-3.68-15.8-.52,16.21H26.7l-.52-16.21L22.5,54.11l-1.1-.22,2.65-16L17.36,52.67l-1.05-.43L22,37.05,12.59,50.24c-.31-.2-.63-.41-.94-.63l8.58-13.77L8.39,46.94l-.79-.8L18.69,34.3,4.92,42.88c-.22-.31-.43-.62-.63-.94L17.48,32.5,2.3,38.22c-.15-.34-.3-.69-.43-1l14.78-6.69-16,2.65C.56,32.77.49,32.4.42,32l15.81-3.68L0,27.83c0-.19,0-.37,0-.56s0-.38,0-.57l16.22-.52L.42,22.5c.07-.37.14-.74.22-1.1l16,2.65L1.87,17.36c.13-.36.28-.7.43-1.05L17.48,22,4.29,12.59c.2-.31.41-.63.63-.94l13.77,8.58L7.6,8.39c.26-.27.52-.53.79-.79L20.23,18.69,11.65,4.92c.31-.22.63-.43.94-.63L22,17.48,16.31,2.3c.35-.15.69-.3,1.05-.43l6.69,14.78Z"/></svg>