<svg id="Layer_1" data-name="Layer 1" xmlns="http://www.w3.org/2000/svg" xmlns:xlink="http://www.w3.org/1999/xlink" viewBox="0 0 54.53 54.53"><defs><style>.cls-1{fill:url(#linear-gradient);}.cls-2{fill:url(#linear-gradient-2);}.cls-3{fill:url(#linear-gradient-3);}.cls-4{fill:url(#linear-gradient-4);}</style><linearGradient id="linear-gradient" y1="13.63" x2="27.27" y2="13.63" gradientUnits="userSpaceOnUse"><stop offset="0" stop-color="red"/><stop offset="1" stop-color="#076fc4"/></linearGradient><linearGradient id="linear-gradient-2" x1="27.27" y1="40.9" x2="54.53" y2="40.9" xlink:href="#linear-gradient"/><linearGradient id="linear-gradient-3" x1="27.27" y1="13.63" x2="54.53" y2="13.63" xlink:href="#linear-gradient"/><linearGradient id="linear-gradient-4" y1="40.9" x2="27.27" y2="40.9" xlink:href="#linear-gradient"/></defs><path class="cls-1" d="M13.63,0A13.63,13.63,0,0,0,0,13.63H0a13.64,13.64,0,1,0,27.27,0h0A13.64,13.64,0,0,0,13.63,0Z"/><path class="cls-2" d="M40.9,27.27A13.63,13.63,0,0,0,27.27,40.9h0a13.63,13.63,0,0,0,27.26,0h0A13.63,13.63,0,0,0,40.9,27.27Z"/><path class="cls-3" d="M54.53,13.63A13.63,13.63,0,0,0,40.9,0h0a13.64,13.64,0,0,0,0,27.27h0A13.64,13.64,0,0,0,54.53,13.63Z"/><path class="cls-4" d="M27.27,40.9A13.64,13.64,0,0,0,13.63,27.27h0a13.63,13.63,0,0,0,0,27.26h0A13.64,13.64,0,0,0,27.27,40.9Z"/></svg>